<svg xmlns="http://www.w3.org/2000/svg" xmlns:xlink="http://www.w3.org/1999/xlink" width="512" height="433">
    <path fill="#00000" d="M243.709 193.556L247.015 193.508L247.557 196.859C245.927 200.923 242.13 204.199 239.444 207.616L237.55 209.604C237.775 207.165 237.542 204.747 237.597 202.307C237.616 201.471 237.58 200.172 237.922 199.401C238.997 196.98 241.323 194.605 243.709 193.556Z"/>
    <path fill="#00000" d="M348.474 288.625C349.843 288.484 351.335 288.614 352.718 288.629L352.63 318.83L348.348 318.773C347.933 315.566 348.023 312.291 348.022 309.064L348.039 295.193L348.051 290.977C348.052 290.563 347.938 289.62 348.058 289.25C348.136 289.012 348.335 288.833 348.474 288.625Z"/>
    <path fill="#00000" d="M403.542 288.076L404.25 288.028C404.91 288.693 404.733 291.371 404.782 292.413C401.819 292.724 399.04 293.507 396.893 295.677C392.998 299.614 393.251 304.508 393.233 309.627L393.224 318.857L388.736 318.918L388.554 314.397L388.527 288.494L393.243 288.521L393.2 295.26L394.875 292.638C397.059 289.652 400.056 288.639 403.542 288.076Z"/>
    <path fill="#00000" d="M221.67 276.47C223.006 276.47 225.02 276.214 226.256 276.611L226.165 293.034L229.174 290.31C232.044 288.215 235.139 287.801 238.599 288.404L239 288.475C239.835 288.615 240.551 288.834 241.318 289.196C244.184 290.551 246.482 293.104 247.503 296.114C248.615 299.392 248.436 302.953 248.443 306.379L248.337 318.854L243.823 318.857L243.718 300.437C243.479 298.401 242.97 296.477 241.545 294.926C240.048 293.296 237.89 292.268 235.676 292.245C233.132 292.218 230.587 293.026 228.774 294.869C227.616 296.046 226.846 297.581 226.481 299.184C226.015 301.236 226.262 303.764 226.257 305.88L226.257 318.902C224.776 318.746 223.233 318.866 221.744 318.907L221.67 276.47Z"/>
    <path fill="#00000" d="M294.634 288.321L295.915 288.211C301.272 288.084 303.845 289.499 307.669 293.112C307.436 291.6 307.498 290.024 307.486 288.496L312.233 288.489L312.244 318.924C310.706 318.733 309.069 318.848 307.516 318.861L307.598 315.05L307.632 314.75L307.375 314.558L305.992 315.928C304.43 317.132 302.859 318.18 300.942 318.729L300.538 318.84C298.607 319.385 296.439 319.475 294.453 319.181C290.787 318.64 287.461 316.759 285.29 313.735C282.388 309.692 281.725 305.099 282.473 300.25C282.839 297.874 283.789 295.761 285.19 293.812C287.56 290.518 290.703 288.929 294.634 288.321ZM296.069 292.32C293.283 292.759 290.709 293.898 289.021 296.25C287.112 298.908 286.259 302.798 286.86 306.021L287.19 307.25L287.3 307.64C288.084 310.356 289.741 312.607 292.25 313.944C294.006 314.88 296.414 315.36 298.405 315.181C301.261 314.601 303.851 313.691 305.582 311.167C307.52 308.341 308.336 304.206 307.555 300.845L307.349 300.125L307.233 299.717C306.511 297.207 304.941 294.862 302.626 293.555C300.48 292.344 298.483 292.2 296.069 292.32Z"/>
    <path fill="#00000" d="M334.666 118.833C337.889 118.555 358.602 118.167 360.421 119.073C360.451 119.613 360.547 119.941 360.194 120.4C359.795 120.919 358.929 121.24 358.375 121.597C357.375 122.241 356.219 123.075 355.513 124.034C354.138 125.902 353.502 128.434 353.21 130.705C352.584 135.573 352.639 140.57 352.559 145.472L352.495 173.492L352.516 197.055C352.528 203.243 352.365 209.509 353.171 215.656C354.757 227.744 359.491 238.672 369.414 246.241C376.091 251.334 384.374 253.919 392.604 255.068C396.019 255.545 399.938 255.845 403.36 255.336C414.319 253.707 424.165 249.876 431.125 240.786C435.142 235.54 438.001 229.077 439.33 222.613C441.149 213.763 440.919 204.726 440.926 195.74L440.92 171.168L440.905 152.047C440.896 146.674 440.983 141.235 440.228 135.904C439.551 131.125 438.225 125.599 433.824 122.884C432.501 122.067 430.672 121.523 429.502 120.568C428.947 120.115 429.029 119.903 428.965 119.25C429.143 119.1 429.283 118.886 429.5 118.8C429.888 118.647 431.049 118.748 431.496 118.739L437.625 118.679L446.279 118.713C448.154 118.729 450.168 118.64 451.99 119.125C452.067 119.375 452.243 119.614 452.221 119.875C452.16 120.6 448.647 122.402 447.845 123.101C447.21 123.654 446.783 124.35 446.396 125.088C444.027 129.615 444.283 136.429 444.177 141.434L444.177 184.375C444.164 200.178 445.308 216.639 439.668 231.686L438.644 234.058C433.27 244.794 425.164 252.131 413.747 255.933C404.72 258.939 395.69 259.427 386.306 258.392C378.752 257.56 372.07 255.895 365.25 252.491C350.942 245.348 343.283 232.107 341.625 216.482C340.715 207.905 341.235 198.912 341.235 190.285L341.231 149.716L340.979 135.75C340.801 132.705 340.566 129.651 339.572 126.745C338.687 124.159 337.186 122.476 334.723 121.273L334.125 120.974C333.407 120.553 333.216 120.425 333.027 119.625L333.492 119.125L334.666 118.833Z"/>
    <path fill="#00000" d="M217.324 118.875C219.239 118.555 221.436 118.679 223.383 118.676L233.623 118.694C244.125 118.721 254.65 118.435 265.125 119.232C272.222 119.771 279.439 120.669 286.125 123.24C293.445 126.055 299.474 130.432 302.831 137.686C303.596 139.339 304.19 141.1 304.519 142.893C306.096 151.498 304.251 160.275 299.278 167.46C294.179 174.826 286.332 179.751 277.803 182.281C274.166 183.359 270.484 183.946 266.766 184.632L276.303 187.238C290.541 192.365 295.667 204.841 300.633 217.948L307.508 234.738C310.243 240.575 312.945 247.326 317.541 251.931C318.688 253.08 319.851 254.157 321.383 254.776C322.33 255.158 323.516 255.379 324.542 255.387C325.346 255.393 326.413 255.08 327.161 255.403C327.603 255.594 327.533 255.707 327.698 256.125C327.397 256.497 327.171 256.76 326.723 256.955C322.206 258.92 315.401 259.002 310.804 257.246C303.251 254.361 300.632 245.396 297.668 238.674L289.881 220.474C286.273 212.032 283.371 202.114 277.043 195.214C265.837 182.996 250.802 185.725 235.981 185.085L236.032 224.753C236.038 231.598 235.63 238.989 236.782 245.75C237.16 247.963 237.938 250.825 239.641 252.38C240.773 253.415 242.164 254.099 243.375 255.024C244.018 255.515 244.121 255.705 244.251 256.5L243.914 256.899C237.697 257.409 231.15 257.058 224.897 257.042C222.789 257.036 219.414 257.457 217.436 256.844C216.879 256.671 216.97 256.6 216.708 256.125C217.037 254.826 218.731 254.101 219.794 253.358C220.864 252.611 221.766 251.74 222.393 250.585C223.649 248.271 224.176 245.014 224.375 242.406C224.831 236.422 224.663 230.447 224.696 224.455L224.741 191.793L224.744 156.808L224.472 136.137C224.294 133.276 224.196 130.353 223.389 127.583C222.429 124.282 220.973 122.916 218.125 121.202C217.185 120.636 217.128 120.519 216.842 119.5L217.324 118.875ZM244.152 121.358L236.002 121.742L236 182.326L251.739 182.314C261.378 182.253 270.874 182.092 279.485 177.156C285.23 173.703 289.769 168.779 291.431 162.115L292.316 157.796C293.59 150.499 291.741 141.507 287.404 135.505C281.351 127.128 272.19 124.043 262.371 122.542L244.152 121.358Z"/>
    <path fill="#00000" d="M179.886 75.3381C181.962 75.0837 184.352 75.7677 186.129 76.8244C190.385 79.3555 192.484 84.146 193.568 88.7843C197.306 104.779 190.82 122.673 184.388 137.161C180.719 145.425 176.555 153.553 171.751 161.22L152.683 189.287L158.123 187.457C162.268 185.86 165.599 184.207 170.157 184.204C176.478 184.201 182.318 185.811 186.857 190.383C192.65 196.221 194.69 204.587 195.773 212.481C196.774 219.777 196.978 227.189 197.013 234.552C201.267 232.449 204.606 229.479 208.284 226.561L222.918 214.278C223.097 216.58 223.363 219.086 223.201 221.391C223.173 221.796 223.139 222.753 222.954 223.107C222.468 224.041 220.802 225.28 219.988 226.043C217.742 228.149 215.458 230.247 213.02 232.132L204.647 238.356C202.432 239.913 198.312 241.89 196.864 244.193C195.892 245.74 195.719 247.714 195.345 249.467L193.52 258.125L190.793 268.75C185.015 287.972 176.041 305.095 163.02 320.375C155.857 328.781 147.546 336.294 137.749 341.506C129.082 346.118 117.274 349.476 107.587 346.454C101.677 344.611 96.9145 341.153 94.0586 335.539C91.2141 329.947 91.146 322.984 93.0947 317.087C95.7022 309.197 99.8714 302.278 105.301 295.975C110.421 290.033 116.46 285.153 122.664 280.413C138.7 268.164 156.619 258.701 174.114 248.743L183.869 243.279C185.635 242.185 187.22 241.035 187.703 238.887L187.786 238.5C188.44 235.61 188.54 232.518 188.653 229.559C188.91 222.826 188.582 216.27 187.119 209.684C185.849 203.965 183.166 197.073 177.931 193.873C172.007 190.253 164.168 192.745 158.311 195.247C155.146 196.6 152.193 198.032 149.375 200.035C145.422 202.844 142.028 206.331 137.969 209.02C137.166 209.552 136.085 210.406 135.125 210.573C133.993 210.769 132.205 210.145 131.36 209.396C129.499 207.748 130.927 205.148 131.875 203.389C133.017 201.271 134.554 199.31 135.946 197.351L142.676 187.823C152.137 174.058 162.753 160.884 170.665 146.12C174.777 138.448 178.039 130.163 180.852 121.935C183.802 113.305 186.153 104.183 185.983 95.0077C185.922 91.6591 185.388 86.483 182.761 84.095C181.896 83.3086 180.717 82.7011 179.515 82.799C177.465 82.9659 175.559 83.9838 173.866 85.0733C168.965 88.227 164.69 92.8104 160.793 97.1019C146.841 113.422 137.2 132.562 128.875 152.217C118.2 177.419 110.246 203.263 103.419 229.732L98.9 247.175C97.5876 253.095 96.7727 259.075 95.875 265.067L94.5005 274.375C94.1764 276.504 93.944 279.558 92.646 281.352C91.9674 282.29 90.8444 283.004 89.7111 283.198C89.0667 283.309 88.0885 282.774 87.5789 282.38C86.8019 281.779 86.3768 281.401 86.2016 280.407C85.8068 278.169 86.1888 275.462 86.3404 273.194L88.3997 252.077L94.2793 196.785L101.411 139.969L103.487 123.42C103.856 119.287 103.823 115.067 103.965 110.917C104.093 107.192 104.37 103.35 103.822 99.6495C103.265 95.8901 102.591 92.0409 101.434 88.4157C100.007 89.0139 98.5873 89.615 97.454 90.7006C95.685 92.3952 94.3295 94.9345 93.0283 97C89.9212 101.932 86.9279 106.906 84.2989 112.113C75.6065 129.328 69.2807 149.36 69.2094 168.784C69.1958 172.491 69.1638 176.563 70.374 180.109C70.7564 181.23 71.7003 183.352 72.821 183.844L73.0391 183.929C74.5775 184.574 77.224 184.402 78.375 185.428C78.6362 186.026 78.7521 186.553 78.7535 187.205C78.7545 187.706 78.8781 188.741 78.5067 189.079C77.4897 190.004 74.1391 189.826 72.75 189.766C70.4282 189.666 68.6555 188.687 67.1345 186.983C62.4762 181.765 62.19 172.788 62.5629 166.189C62.9559 159.232 63.8353 152.238 65.3914 145.442C68.163 133.339 72.5959 121.77 77.6987 110.489C81.9425 101.107 87.0532 90.2893 94.938 83.4335C96.9689 81.6676 99.6317 80.181 102.398 80.4236C104.682 80.6238 106.411 82.2562 107.815 83.9438C109.983 86.5484 111.508 90.3477 112.189 93.625C113.191 98.4505 113.253 103.468 113.248 108.375C113.241 115.873 112.777 123.151 112.105 130.614L110.577 148.742L107.645 169.188L104.842 193.338C104.451 196.941 103.594 200.429 103.305 204.045C105.062 200.758 105.681 197.454 106.749 193.939L112.196 176.713C122.261 148.338 134.317 120.133 152.975 96.2412C159.586 87.7752 168.577 76.7365 179.886 75.3381ZM185.175 251.125L162.796 263.98L141.563 276.124C137.812 278.492 134.253 281.294 130.68 283.925L121.249 290.955C115.107 296.013 109.245 302.177 104.99 308.899C102.8 312.358 100.864 316.069 99.8666 320.063C98.6833 324.804 98.8864 330.079 101.469 334.324C102.101 335.363 102.949 336.305 103.876 337.088C106.773 339.191 109.151 340.111 112.677 340.605C123.135 342.07 135.451 335.06 143.413 328.96C155.635 319.595 164.36 306.468 171.466 293C178.318 280.013 183.953 265.741 186.026 251.125C185.604 251.033 185.561 251.024 185.175 251.125Z"/>
</svg>


